<svg width="32" height="32" viewBox="0 0 32 32" fill="none" xmlns="http://www.w3.org/2000/svg">
    <path clip-rule="evenodd" d="M16 4c-4.74 0-7.111 3.343-7.111 7.467v2.31c0 1.474-1.325 2.69-2.388 3.71-.684.657-1.168 1.589-1.168 2.69 0 1.375 1.062 2.49 2.37 2.49h16.593c1.31 0 2.37-1.115 2.37-2.49 0-1.101-.483-2.033-1.167-2.69-1.063-1.02-2.388-2.236-2.388-3.71v-2.31C23.111 7.343 20.741 4 16 4z" stroke="#7E7E7E" stroke-width="2"/>
    <path d="M18.667 26.667c-.271.404-.66.74-1.128.972a3.46 3.46 0 0 1-1.539.356 3.46 3.46 0 0 1-1.539-.356 2.913 2.913 0 0 1-1.128-.972" stroke="#7E7E7E" stroke-width="2" stroke-linecap="round" stroke-linejoin="round"/>
</svg>
