<svg width="32" height="32" viewBox="0 0 32 32" fill="none" xmlns="http://www.w3.org/2000/svg">
    <path clip-rule="evenodd" d="M19.027 6.055c0-1.135-.92-2.055-2.055-2.055h-1.944c-1.135 0-2.055.92-2.055 2.055 0 .873-.564 1.63-1.331 2.047-.12.065-.238.133-.355.203-.753.454-1.697.563-2.46.127a2.09 2.09 0 0 0-2.843.761l-.94 1.613a2.059 2.059 0 0 0 .757 2.822c.76.435 1.138 1.304 1.12 2.18a9.104 9.104 0 0 0 0 .384c.018.876-.36 1.745-1.12 2.18a2.058 2.058 0 0 0-.757 2.822l.94 1.613a2.09 2.09 0 0 0 2.843.762c.763-.437 1.707-.328 2.46.126.117.07.235.138.355.203.767.416 1.33 1.174 1.33 2.047 0 1.135.92 2.055 2.056 2.055h1.944c1.135 0 2.055-.92 2.055-2.055 0-.873.564-1.63 1.331-2.047.12-.065.238-.133.355-.203.753-.454 1.697-.563 2.46-.127a2.09 2.09 0 0 0 2.843-.761l.94-1.613a2.058 2.058 0 0 0-.757-2.822c-.76-.435-1.138-1.304-1.12-2.18a8.795 8.795 0 0 0 0-.384c-.018-.876.36-1.745 1.12-2.18a2.058 2.058 0 0 0 .757-2.822l-.94-1.613a2.09 2.09 0 0 0-2.843-.761c-.763.436-1.707.327-2.46-.127a9.135 9.135 0 0 0-.355-.203c-.767-.417-1.33-1.174-1.33-2.047z" stroke="#7E7E7E" stroke-width="2"/>
</svg>
